<svg xmlns="http://www.w3.org/2000/svg" viewBox="0 0 180 80"><g data-name="レイヤー 2"><path style="fill:#fff" d="M0 0h180v80H0z"/><path d="M75.59 27.28a8.33 8.33 0 0 0-1.93 5.55s0 21.92 0 22.17H83V43.61h25v-6.26H83v-5.07h26.78V25H80.17a5.83 5.83 0 0 0-4.58 2.28ZM114 25v7.28h12.83V55h10.36V32.28h12.92V25ZM64.3 39.36v-.25s2.91-.49 2.91-6.45v-.77a7.19 7.19 0 0 0-2.12-5.3A6.76 6.76 0 0 0 60.61 25H29.87v7h28v4.7h-28V55H60.6a7.12 7.12 0 0 0 4.57-1.93 8 8 0 0 0 2.06-5.9c0-7.4-2.9-7.8-2.93-7.81ZM57.06 48h-19.9v-5.36h19.9Z" style="fill:#e50012"/></g></svg>